HIERARCHY
ROOT Hips
{
	OFFSET 0.000000 8.830580 0.000000
	CHANNELS 6 Xposition Yposition Zposition Zrotation Yrotation Xrotation 
	JOINT Spine
	{
		OFFSET 0.000000 0.010000 0.000000
		CHANNELS 3 Zrotation Yrotation Xrotation
		JOINT Spine1
		{
			OFFSET 0.000000 2.459130 0.000000
			CHANNELS 3 Zrotation Yrotation Xrotation
			JOINT Neck
			{
				OFFSET 0.000000 2.484630 0.000000
				CHANNELS 3 Zrotation Yrotation Xrotation
				JOINT Head_virtual
				{
					OFFSET 0.000000 0.000000 0.000000
					CHANNELS 3 Zrotation Yrotation Xrotation
					JOINT Head
					{
						OFFSET 0.000000 0.927525 0.000000
						CHANNELS 3 Zrotation Yrotation Xrotation
						End Site
						{
							OFFSET 0.000000 0.000000 0.000000
						}
					}
				}
				JOINT LeftUpArm_virtual
				{
					OFFSET 0.000000 0.000000 0.000000
					CHANNELS 3 Zrotation Yrotation Xrotation
					JOINT LeftUpArm
					{
						OFFSET 1.248820 0.000000 0.000000
						CHANNELS 3 Zrotation Yrotation Xrotation
						JOINT LeftForeArm
						{
							OFFSET 2.597580 0.000000 0.000000
							CHANNELS 3 Zrotation Yrotation Xrotation
							JOINT LeftHand
							{
								OFFSET 2.455420 0.000000 0.000000
								CHANNELS 3 Zrotation Yrotation Xrotation
								End Site
								{
									OFFSET 0.000000 0.000000 0.000000
								}
							}
						}
					}
				}
				JOINT RightUpArm_virtual
				{
					OFFSET -0.000000 -0.000000 -0.000000
					CHANNELS 3 Zrotation Yrotation Xrotation
					JOINT RightUpArm
					{
						OFFSET -1.248820 -0.000000 -0.000000
						CHANNELS 3 Zrotation Yrotation Xrotation
						JOINT RightForeArm
						{
							OFFSET -2.597580 -0.000000 -0.000000
							CHANNELS 3 Zrotation Yrotation Xrotation
							JOINT RightHand
							{
								OFFSET -2.455420 -0.000000 -0.000000
								CHANNELS 3 Zrotation Yrotation Xrotation
								End Site
								{
									OFFSET 0.000000 0.000000 0.000000
								}
							}
						}
					}
				}
			}
		}
	}
	JOINT LeftUpLeg
	{
		OFFSET 1.271939 0.000000 0.000000
		CHANNELS 3 Zrotation Yrotation Xrotation
		JOINT LeftLowLeg
		{
			OFFSET 0.000000 -4.342910 0.000000
			CHANNELS 3 Zrotation Yrotation Xrotation
			JOINT LeftFoot
			{
				OFFSET 0.000000 -4.487670 0.000000
				CHANNELS 3 Zrotation Yrotation Xrotation
				JOINT LeftToeBase
				{
					OFFSET 0.000000 0.000000 1.515070
					CHANNELS 3 Zrotation Yrotation Xrotation
					End Site
					{
						OFFSET 0.000000 0.000000 0.000000
					}
				}
			}
		}
	}
	JOINT RightUpLeg
	{
		OFFSET -1.271939 0.000000 0.000000
		CHANNELS 3 Zrotation Yrotation Xrotation
		JOINT RightLowLeg
		{
			OFFSET 0.000000 -4.342910 0.000000
			CHANNELS 3 Zrotation Yrotation Xrotation
			JOINT RightFoot
			{
				OFFSET 0.000000 -4.487670 0.000000
				CHANNELS 3 Zrotation Yrotation Xrotation
				JOINT RightToeBase
				{
					OFFSET 0.000000 0.000000 1.515070
					CHANNELS 3 Zrotation Yrotation Xrotation
					End Site
					{
						OFFSET 0.000000 0.000000 0.000000
					}
				}
			}
		}
	}
}
MOTION
Frames: 8
Frame Time: 0.041667
-20.512133 9.225390 44.506683 -175.853378 -0.503086 -172.266413 2.449390 -1.626216 -10.599518 0.273650 -2.098597 6.179270 0.000000 0.000000 0.000000 -0.475415 3.958550 -1.298029 4.866003 6.694102 -50.168629 -2.175130 13.679700 -1.578150 -14.254500 -1.521250 -33.857201 0.000000 -21.256500 0.000000 29.486099 10.290700 24.493299 9.199960 -9.439610 0.621280 11.321200 0.339738 -37.956200 0.000000 19.840200 0.000000 -16.996599 -2.465960 23.875099 4.587274 -0.170205 -7.713774 0.000000 0.000000 7.582830 9.316751 0.904164 7.495679 0.000000 0.000000 -35.497101 1.026569 4.208788 -5.454123 0.000000 0.000000 6.026150 8.320508 -6.534026 10.330200 0.000000 0.000000 -26.854300 
-20.512214 9.225288 44.505217 -175.859066 -0.510322 -172.282727 2.453508 -1.619334 -10.592179 0.248677 -2.093358 6.168943 0.000000 0.000000 0.000000 -0.443245 3.945755 -1.264487 4.845536 6.718949 -50.152001 -2.121630 13.696900 -1.576090 -14.281800 -1.461460 -33.485802 0.000000 -21.362801 0.000000 29.373199 10.420200 24.327200 9.236300 -9.452550 0.610781 11.290500 0.356054 -37.930599 0.000000 19.832001 0.000000 -17.038900 -2.490290 23.881500 4.584780 -0.212091 -7.682663 0.000000 0.000000 7.571380 9.327195 0.936365 7.502168 0.000000 0.000000 -35.485300 1.023205 4.196777 -5.410351 0.000000 0.000000 5.994410 8.331816 -6.524476 10.327051 0.000000 0.000000 -26.843400 
-20.512030 9.225161 44.503931 -175.861037 -0.513359 -172.275972 2.453630 -1.628226 -10.620738 0.242514 -2.102133 6.200019 0.000000 0.000000 0.000000 -0.471239 3.975753 -1.281131 4.873225 6.710188 -50.125245 -2.114210 13.715900 -1.578190 -14.284800 -1.457200 -33.437698 0.000000 -21.348101 0.000000 29.349600 10.415000 24.302000 9.240240 -9.431940 0.608780 11.283800 0.365575 -37.875999 0.000000 19.825399 0.000000 -17.057899 -2.524060 23.800600 4.585166 -0.221908 -7.675368 0.000000 0.000000 7.556590 9.301671 0.938399 7.496061 0.000000 0.000000 -35.482800 1.025091 4.179947 -5.399385 0.000000 0.000000 5.976500 8.317078 -6.525019 10.320236 0.000000 0.000000 -26.833200 
-20.511831 9.225018 44.502986 -175.859779 -0.510475 -172.274902 2.454570 -1.626618 -10.625531 0.238760 -2.100850 6.200244 0.000000 0.000000 0.000000 -0.467493 3.971986 -1.276234 4.863890 6.711157 -50.114503 -2.109440 13.727100 -1.578540 -14.283700 -1.461230 -33.418701 0.000000 -21.334299 0.000000 29.328400 10.417800 24.319500 9.237020 -9.442030 0.624249 11.291700 0.413265 -37.933498 0.000000 19.793699 0.000000 -17.050400 -2.482150 23.856100 4.587654 -0.220517 -7.664007 0.000000 0.000000 7.548390 9.321261 0.944860 7.491875 0.000000 0.000000 -35.489799 1.029232 4.170730 -5.391851 0.000000 0.000000 5.972410 8.318443 -6.511686 10.312862 0.000000 0.000000 -26.837200 
-20.511647 9.224956 44.501391 -175.860003 -0.506569 -172.270217 2.450284 -1.615900 -10.657888 0.238765 -2.089053 6.239293 0.000000 0.000000 0.000000 -0.471127 3.971451 -1.282528 4.868891 6.704879 -50.111688 -2.112270 13.732700 -1.569370 -14.273500 -1.505990 -33.438499 0.000000 -21.294701 0.000000 29.361900 10.424800 24.326099 9.228450 -9.444470 0.625931 11.320300 0.410633 -37.953400 0.000000 19.812401 0.000000 -17.054501 -2.528340 23.779800 4.586212 -0.192723 -7.657593 0.000000 0.000000 7.545610 9.326959 0.929002 7.484210 0.000000 0.000000 -35.495300 1.028060 4.197389 -5.383623 0.000000 0.000000 5.961840 8.313187 -6.531689 10.317043 0.000000 0.000000 -26.847300 
-20.511542 9.225042 44.499655 -175.855665 -0.488967 -172.266476 2.455179 -1.598058 -10.679403 0.234359 -2.072927 6.249756 0.000000 0.000000 0.000000 -0.465534 3.957194 -1.263683 4.867777 6.695321 -50.119800 -2.128090 13.734800 -1.575200 -14.265400 -1.527930 -33.450100 0.000000 -21.298901 0.000000 29.444799 10.408400 24.346701 9.239520 -9.455720 0.636696 11.328900 0.432534 -38.013699 0.000000 19.835800 0.000000 -17.123301 -2.602440 23.719700 4.589186 -0.187110 -7.645041 0.000000 0.000000 7.540760 9.302375 0.934679 7.475171 0.000000 0.000000 -35.487200 1.030497 4.220439 -5.374828 0.000000 0.000000 5.956200 8.334360 -6.529568 10.313465 0.000000 0.000000 -26.828400 
-20.511524 9.225100 44.498395 -175.855599 -0.485115 -172.260419 2.449234 -1.592316 -10.700480 0.246358 -2.065357 6.258702 0.000000 0.000000 0.000000 -0.483498 3.967928 -1.249964 4.871347 6.683972 -50.116783 -2.152910 13.736700 -1.585310 -14.275100 -1.524450 -33.458698 0.000000 -21.366400 0.000000 29.465200 10.397900 24.298401 9.250380 -9.473060 0.624011 11.309500 0.467355 -37.956699 0.000000 19.825701 0.000000 -17.162600 -2.617340 23.731400 4.589379 -0.178909 -7.646407 0.000000 0.000000 7.552320 9.313735 0.930036 7.469100 0.000000 0.000000 -35.501200 1.034547 4.188010 -5.372147 0.000000 0.000000 5.952270 8.298997 -6.512593 10.319535 0.000000 0.000000 -26.840500 
-20.511520 9.225173 44.497496 -175.857318 -0.486914 -172.264765 2.351850 -1.697629 -10.771684 0.460413 -2.138078 6.399083 0.000000 0.000000 0.000000 -0.691179 4.098913 -1.329451 4.864090 6.590485 -50.089745 -2.309260 13.873200 -1.692050 -14.271500 -1.510200 -33.434799 0.000000 -21.391899 0.000000 29.412600 10.369600 24.217899 9.156030 -9.303480 0.568146 11.280200 0.462606 -37.886299 0.000000 19.829000 0.000000 -17.083900 -2.650800 23.746300 4.589218 -0.207950 -7.635800 0.000000 0.000000 7.551660 9.329127 0.959582 7.471914 0.000000 0.000000 -35.490801 1.033703 4.181800 -5.352662 0.000000 0.000000 5.933980 8.296797 -6.508589 10.322311 0.000000 0.000000 -26.831700 
